<svg width="57" height="35" viewBox="0 0 57 35" fill="none" xmlns="http://www.w3.org/2000/svg">
<rect x="1" y="0.5" width="55" height="34" rx="4.5" fill="#006FCF" stroke="#FFF2F5"/>
<path d="M14.6199 15.2484L15.7285 17.9354H13.5199L14.6199 15.2484ZM37.644 15.3601H33.3801V16.5447H37.5753V18.3193H33.3887V19.6398H37.6526V20.6983L40.6275 17.4828L37.6526 14.1312L37.644 15.3601ZM17.5017 12.0086H23.2237L24.4941 14.7801L25.6715 12H40.5243L42.0684 13.7044L43.6654 12H50.4874L45.4471 17.5172L50.4358 23H43.5121L41.9681 21.2955L40.3568 23H16.1367L15.4292 21.2955H13.8107L13.1017 23H7.5L12.2065 12H17.1193L17.5017 12.0086ZM29.9096 13.5526H26.7027L24.5543 18.6172L22.2268 13.5526H19.0443V20.4419L16.0938 13.5526H13.2392L9.82747 21.4474H12.0547L12.7622 19.7429H16.4805L17.188 21.4474H21.0839V15.8113L23.5918 21.456H25.2962L27.7884 15.8285V21.4574H29.8767L29.9111 13.5512L29.9096 13.5526ZM43.2872 17.5172L46.9124 13.5526H44.3027L42.0096 16.0247L39.7924 13.5526H31.3505V21.456H39.6721L41.9839 18.9666L44.201 21.456H46.8866L43.2872 17.5172Z" fill="white"/>
</svg>
