<svg width="57" height="35" viewBox="0 0 57 35" fill="none" xmlns="http://www.w3.org/2000/svg">
<rect x="0.75" y="0.5" width="55" height="34" rx="4.5" fill="white" stroke="#FFF2F5"/>
<path d="M15.557 11.1151C16.0124 10.5458 16.3213 9.78115 16.2399 9C15.5735 9.03309 14.7606 9.43956 14.2896 10.0095C13.8669 10.4974 13.4928 11.2938 13.5902 12.0422C14.3382 12.1071 15.0856 11.6685 15.557 11.1151Z" fill="black"/>
<path d="M16.2315 12.1889C15.1448 12.124 14.2215 12.8053 13.7028 12.8053C13.1838 12.8053 12.3893 12.2214 11.53 12.2373C10.4118 12.2535 9.37436 12.8861 8.80666 13.8917C7.63947 15.903 8.49848 18.8874 9.63388 20.5257C10.185 21.3366 10.8494 22.2287 11.7246 22.1966C12.5519 22.1642 12.8759 21.6614 13.8809 21.6614C14.8856 21.6614 15.1775 22.1966 16.0531 22.1804C16.9608 22.1642 17.5285 21.3694 18.0796 20.5584C18.7122 19.6339 18.9707 18.7418 18.987 18.6931C18.9707 18.6769 17.2365 18.0116 17.2203 16.0165C17.2041 14.3459 18.5821 13.5511 18.647 13.5021C17.8688 12.3511 16.6529 12.2214 16.2312 12.1889" fill="black"/>
<path d="M27.0619 9.92969C29.4229 9.92969 31.0673 11.5572 31.0673 13.9266C31.0673 16.3044 29.3892 17.9404 27.0029 17.9404H24.3889V22.0979H22.5002V9.92969H27.0619ZM24.3889 16.3551H26.5559C28.2006 16.3551 29.1362 15.4698 29.1362 13.935C29.1362 12.4006 28.2003 11.5235 26.5643 11.5235H24.3889V16.3551Z" fill="black"/>
<path d="M31.5363 19.5761C31.5363 18.0161 32.7252 17.1224 34.9175 16.9874L37.27 16.844V16.1693C37.27 15.1831 36.6209 14.6433 35.4657 14.6433C34.5126 14.6433 33.821 15.1322 33.6783 15.8825H31.9745C32.0254 14.3059 33.5093 13.1592 35.5163 13.1592C37.6749 13.1592 39.0831 14.2891 39.0831 16.0431V22.0973H37.3378V20.6385H37.2956C36.798 21.5913 35.7015 22.1898 34.5126 22.1898C32.7589 22.1898 31.5363 21.1446 31.5363 19.5761ZM37.27 18.792V18.1089L35.1705 18.2438C33.9897 18.3197 33.3746 18.758 33.3746 19.5252C33.3746 20.2674 34.0153 20.7482 35.0187 20.7482C36.3001 20.7482 37.27 19.93 37.27 18.792Z" fill="black"/>
<path d="M40.6876 25.3518V23.8933C40.8057 23.9098 41.0921 23.9267 41.2439 23.9267C42.0786 23.9267 42.551 23.5731 42.8377 22.6618L43.0064 22.1224L39.8104 13.2686H41.7834L44.0098 20.4527H44.0519L46.278 13.2686H48.2007L44.8866 22.5691C44.1275 24.7026 43.2591 25.4027 41.4211 25.4027C41.2777 25.4027 40.8138 25.3858 40.6876 25.3518Z" fill="black"/>
</svg>
