<svg width="57" height="35" viewBox="0 0 57 35" fill="none" xmlns="http://www.w3.org/2000/svg">
<rect x="1.25" y="0.5" width="55" height="34" rx="4.5" fill="white" stroke="#FFF2F5"/>
<path d="M35.1548 12.8529C35.4458 11.3824 35.1548 10.3529 34.2817 9.47059C33.4087 8.44118 31.8082 8 29.7712 8H23.8056C23.369 8 23.078 8.29412 22.9325 8.73529L20.75 23.5882C20.75 23.8824 20.8955 24.1765 21.1865 24.1765H25.1151L25.6971 19.1765L28.3161 15.9412L35.1548 12.8529Z" fill="#003087"/>
<path d="M35.1549 12.8516L34.8639 13.1457C34.1364 17.2633 31.6628 18.7339 28.1708 18.7339H26.5702C26.1337 18.7339 25.8427 19.028 25.6972 19.4692L24.8242 25.2045L24.5332 26.6751C24.5332 26.9692 24.6787 27.2633 24.9697 27.2633H28.0253C28.4618 27.2633 28.7528 26.9692 28.7528 26.6751V26.528L29.3348 22.9986V22.8516C29.3348 22.5574 29.7713 22.2633 30.0623 22.2633H30.4988C33.5544 22.2633 35.8824 21.0869 36.4644 17.5574C36.7554 16.0869 36.6099 14.9104 35.8824 14.028C35.7369 13.2927 35.4459 12.9986 35.1549 12.8516Z" fill="#3086C8"/>
<path d="M34.2814 12.5584C34.1359 12.4113 33.9904 12.4113 33.8449 12.4113C33.6994 12.4113 33.5539 12.4113 33.4084 12.2642C32.9719 12.1172 32.3899 12.1172 31.8079 12.1172H27.4428C27.2973 12.1172 27.1518 12.1172 27.1518 12.2642C26.8608 12.4113 26.7153 12.5584 26.7153 12.8525L25.6968 19.3231V19.4701C25.6968 19.029 26.1333 18.7348 26.5698 18.7348H28.4613C32.0989 18.7348 34.4269 17.2642 35.1545 13.1466V12.8525C35.0089 12.7054 34.7179 12.5584 34.4269 12.5584H34.2814Z" fill="#012169"/>
</svg>
